<?xml version="1.0" encoding="UTF-8"?>
<svg xmlns="http://www.w3.org/2000/svg" width="707" height="709" viewBox="0 0 707 709" fill="none">
  <g opacity="0.15">
    <path d="M134.441 167.325C151.381 167.325 166.341 170.955 179.321 178.215C192.301 185.475 202.421 195.595 209.681 208.575C217.161 221.555 220.901 236.845 220.901 254.445C220.901 272.045 217.051 287.885 209.351 301.965C201.871 316.045 191.421 327.155 178.001 335.295C164.581 343.215 148.851 347.175 130.811 347.175C114.311 347.175 99.4614 343.655 86.2614 336.615C73.2814 329.355 63.0514 319.125 55.5714 305.925C48.0914 292.725 44.3514 277.325 44.3514 259.725C44.3514 242.345 48.0914 226.725 55.5714 212.865C63.0514 199.005 73.5014 188.005 86.9214 179.865C100.561 171.505 116.401 167.325 134.441 167.325ZM131.471 173.265C118.931 173.265 108.591 180.855 100.451 196.035C92.3114 210.995 88.2414 231.895 88.2414 258.735C88.2414 278.535 90.3314 294.485 94.5114 306.585C98.6914 318.685 104.301 327.485 111.341 332.985C118.381 338.485 125.861 341.235 133.781 341.235C146.541 341.235 156.881 333.645 164.801 318.465C172.941 303.285 177.011 282.275 177.011 255.435C177.011 235.635 174.921 219.795 170.741 207.915C166.561 195.815 161.061 187.015 154.241 181.515C147.421 176.015 139.831 173.265 131.471 173.265ZM323.823 167.325C340.323 167.325 353.303 170.955 362.763 178.215C372.443 185.475 377.283 195.815 377.283 209.235C377.283 217.815 375.083 225.845 370.683 233.325C366.503 240.585 361.003 247.515 354.183 254.115C347.363 260.495 339.993 266.765 332.073 272.925C324.373 278.865 316.783 284.695 309.303 290.415C302.043 296.135 295.773 301.965 290.493 307.905H360.783C369.803 307.905 375.523 306.805 377.943 304.605C380.363 302.185 382.013 298.115 382.893 292.395H389.163C389.163 306.035 389.273 316.595 389.493 324.075C389.713 331.555 390.043 338.265 390.483 344.205C388.503 343.765 384.873 343.435 379.593 343.215C374.313 342.995 368.263 342.775 361.443 342.555C354.623 342.555 347.913 342.555 341.313 342.555H251.553V336.285C257.933 329.685 265.633 322.425 274.653 314.505C283.893 306.365 292.803 297.455 301.383 287.775C310.183 278.095 317.443 267.535 323.163 256.095C329.103 244.655 332.073 232.225 332.073 218.805C332.073 206.925 329.323 198.235 323.823 192.735C318.543 187.235 310.733 184.485 300.393 184.485C291.373 184.485 283.123 186.905 275.643 191.745C268.383 196.365 261.893 203.185 256.173 212.205L250.893 208.575C255.073 201.315 260.243 194.605 266.403 188.445C272.783 182.065 280.593 177.005 289.833 173.265C299.293 169.305 310.623 167.325 323.823 167.325Z" fill="#1A051D"></path>
    <path d="M146.222 456.333L506.556 96" stroke="black" stroke-width="3"></path>
    <path d="M5.22217 707L705 2" stroke="black" stroke-width="3"></path>
  </g>
</svg>
