<?xml version="1.0" encoding="UTF-8"?>
<svg xmlns="http://www.w3.org/2000/svg" width="733" height="709" viewBox="0 0 733 709" fill="none">
  <g opacity="0.15">
    <path d="M163.581 167.325C180.521 167.325 195.481 170.955 208.461 178.215C221.441 185.475 231.561 195.595 238.821 208.575C246.301 221.555 250.041 236.845 250.041 254.445C250.041 272.045 246.191 287.885 238.491 301.965C231.011 316.045 220.561 327.155 207.141 335.295C193.721 343.215 177.991 347.175 159.951 347.175C143.451 347.175 128.601 343.655 115.401 336.615C102.421 329.355 92.191 319.125 84.711 305.925C77.231 292.725 73.491 277.325 73.491 259.725C73.491 242.345 77.231 226.725 84.711 212.865C92.191 199.005 102.641 188.005 116.061 179.865C129.701 171.505 145.541 167.325 163.581 167.325ZM160.611 173.265C148.071 173.265 137.731 180.855 129.591 196.035C121.451 210.995 117.381 231.895 117.381 258.735C117.381 278.535 119.471 294.485 123.651 306.585C127.831 318.685 133.441 327.485 140.481 332.985C147.521 338.485 155.001 341.235 162.921 341.235C175.681 341.235 186.021 333.645 193.941 318.465C202.081 303.285 206.151 282.275 206.151 255.435C206.151 235.635 204.061 219.795 199.881 207.915C195.701 195.815 190.201 187.015 183.381 181.515C176.561 176.015 168.971 173.265 160.611 173.265ZM345.042 167.325C355.382 167.325 364.512 168.865 372.432 171.945C380.572 175.025 386.952 179.425 391.572 185.145C396.192 190.645 398.502 197.355 398.502 205.275C398.502 213.635 395.862 221.445 390.582 228.705C385.302 235.965 378.042 242.235 368.802 247.515C359.782 252.795 349.332 256.865 337.452 259.725C350.872 259.505 363.082 261.265 374.082 265.005C385.082 268.525 393.882 274.135 400.482 281.835C407.082 289.315 410.382 298.775 410.382 310.215C410.382 320.335 407.742 329.685 402.462 338.265C397.182 346.625 390.032 354.105 381.012 360.705C372.212 367.525 361.982 373.245 350.322 377.865C338.662 382.705 326.452 386.335 313.692 388.755C301.152 391.175 288.722 392.385 276.402 392.385V386.115C286.962 385.675 297.522 383.805 308.082 380.505C318.862 377.205 328.652 372.365 337.452 365.985C346.472 359.605 353.622 351.795 358.902 342.555C364.402 333.095 367.152 322.315 367.152 310.215C367.152 297.235 364.072 286.565 357.912 278.205C351.752 269.845 343.282 265.225 332.502 264.345C329.202 265.665 326.122 266.875 323.262 267.975C320.622 269.075 318.092 269.625 315.672 269.625C313.912 269.625 312.482 269.295 311.382 268.635C310.502 267.755 310.062 266.435 310.062 264.675C310.062 262.475 311.052 260.825 313.032 259.725C315.012 258.625 317.322 258.075 319.962 258.075C321.722 258.075 323.482 258.185 325.242 258.405C327.222 258.625 329.312 258.845 331.512 259.065C340.752 252.465 347.242 245.315 350.982 237.615C354.942 229.695 356.922 221.775 356.922 213.855C356.922 203.735 354.282 196.365 349.002 191.745C343.722 186.905 336.682 184.485 327.882 184.485C319.082 184.485 310.832 186.795 303.132 191.415C295.652 195.815 289.382 202.525 284.322 211.545L278.712 208.575C282.452 201.315 287.072 194.605 292.572 188.445C298.292 182.065 305.442 177.005 314.022 173.265C322.602 169.305 332.942 167.325 345.042 167.325Z" fill="#1A051D"></path>
    <path d="M172.333 456.333L532.667 96" stroke="black" stroke-width="3"></path>
    <path d="M31.3335 707L731.111 2" stroke="black" stroke-width="3"></path>
  </g>
</svg>
