<?xml version="1.0" encoding="UTF-8"?>
<svg xmlns="http://www.w3.org/2000/svg" width="733" height="709" viewBox="0 0 733 709" fill="none">
  <g opacity="0.15">
    <path d="M179.372 167.325C196.312 167.325 211.272 170.955 224.252 178.215C237.232 185.475 247.352 195.595 254.612 208.575C262.092 221.555 265.832 236.845 265.832 254.445C265.832 272.045 261.982 287.885 254.282 301.965C246.802 316.045 236.352 327.155 222.932 335.295C209.512 343.215 193.782 347.175 175.742 347.175C159.242 347.175 144.392 343.655 131.192 336.615C118.212 329.355 107.982 319.125 100.502 305.925C93.022 292.725 89.282 277.325 89.282 259.725C89.282 242.345 93.022 226.725 100.502 212.865C107.982 199.005 118.432 188.005 131.852 179.865C145.492 171.505 161.332 167.325 179.372 167.325ZM176.402 173.265C163.862 173.265 153.522 180.855 145.382 196.035C137.242 210.995 133.172 231.895 133.172 258.735C133.172 278.535 135.262 294.485 139.442 306.585C143.622 318.685 149.232 327.485 156.272 332.985C163.312 338.485 170.792 341.235 178.712 341.235C191.472 341.235 201.812 333.645 209.732 318.465C217.872 303.285 221.942 282.275 221.942 255.435C221.942 235.635 219.852 219.795 215.672 207.915C211.492 195.815 205.992 187.015 199.172 181.515C192.352 176.015 184.762 173.265 176.402 173.265ZM371.723 168.315V309.885C371.723 320.005 373.703 326.825 377.663 330.345C381.623 333.865 388.443 335.625 398.123 335.625V342.555C393.723 342.335 387.233 342.115 378.653 341.895C370.293 341.455 361.603 341.235 352.583 341.235C341.583 341.235 331.023 341.455 320.903 341.895C311.003 342.115 303.303 342.335 297.803 342.555V335.625C307.923 335.625 315.843 333.865 321.563 330.345C327.283 326.605 330.143 319.345 330.143 308.565V228.045C330.143 217.485 329.153 209.675 327.173 204.615C325.193 199.555 321.673 196.255 316.613 194.715C311.553 193.175 304.623 192.405 295.823 192.405V185.145C313.643 184.705 328.383 183.275 340.043 180.855C351.923 178.435 362.483 174.255 371.723 168.315Z" fill="#1A051D"></path>
    <path d="M172.333 456.333L532.667 96" stroke="black" stroke-width="3"></path>
    <path d="M31.3335 707L731.111 2" stroke="black" stroke-width="3"></path>
  </g>
</svg>
